<?xml version="1.0" encoding="utf-8"?>
<!-- Generator: Adobe Illustrator 20.0.0, SVG Export Plug-In . SVG Version: 6.00 Build 0)  -->
<svg version="1.1" id="Capa_1" xmlns="http://www.w3.org/2000/svg" xmlns:xlink="http://www.w3.org/1999/xlink" x="0px" y="0px"
	 viewBox="0 0 512 512" style="enable-background:new 0 0 512 512;" xml:space="preserve">
<style type="text/css">
	.st0{fill:#1D417A;}
</style>
<path class="st0" d="M474.9,307.2c-9.2,0-16.3,5.2-22.7,9.8c-4.1,3-8.3,6.1-11.2,6.1c-0.4,0-0.8,0-1.3-1.2v-11.4
	c0-28.1,7.7-46,9.4-49.6c0.3-0.4,0.5-0.8,0.7-1.3l0.3-0.6c7.2-17.7,10.8-37,10.8-57.4v-12.9c0-0.9-0.1-1.7-0.4-2.6
	c-2.8-8.5-9.1-13.4-17.1-13.4c-8.2,0-14.8,4.9-20.7,9.2c-4.7,3.5-9.2,6.7-13.1,6.7c-16.7,0-17.1-25.4-17.1-25.7
	c0-0.3,0.5-25.7,17.1-25.7c3.9,0,8.4,3.3,13.1,6.7c5.9,4.3,12.6,9.2,20.7,9.2c8,0,14.3-4.9,17.1-13.4c0.3-0.8,0.4-1.7,0.4-2.6v-12.9
	c0-20.4-3.6-39.7-10.8-57.4l-0.3-0.6c-0.8-2.1-2.6-3.8-4.7-4.6c-2.2-0.8-4.6-0.6-6.6,0.4c-0.2,0.1-19,9.8-50.4,9.8h-11.4
	c-1.2-0.5-1.2-0.9-1.2-1.3c0-2.9,3.1-7.1,6.1-11.2c4.6-6.3,9.8-13.5,9.8-22.7c0-24.4-25-33.3-41.9-33.3c-16.8,0-41.9,8.9-41.9,33.3
	c0,9.2,5.2,16.3,9.8,22.7c3,4.1,6.1,8.3,6.1,11.2c0,0.4,0,0.8-1.2,1.3h-11.4c-31.4,0-50.2-9.7-50.3-9.8c-1.3-0.7-2.8-1-4.3-0.9
	c-16.9-6.4-35.1-9.6-54.3-9.6H189c-0.9,0-1.7,0.1-2.5,0.4c-8.5,2.8-13.4,9.1-13.4,17.1c0,8.2,4.9,14.8,9.2,20.7
	c3.5,4.7,6.7,9.2,6.7,13.1c0,16.7-25.4,17.1-25.7,17.1c-0.3,0-25.7-0.5-25.7-17.1c0-3.9,3.3-8.4,6.7-13.1c4.3-5.9,9.2-12.6,9.2-20.7
	c0-8-4.9-14.3-13.3-17.1c-0.8-0.3-1.7-0.4-2.6-0.4h-12.9c-20.4,0-39.7,3.6-57.4,10.8l-0.6,0.3c-2.1,0.8-3.8,2.6-4.6,4.7
	c-0.8,2.1-0.6,4.6,0.4,6.6c0.1,0.2,9.8,19,9.8,50.4v11.4c-0.5,1.2-1,1.2-1.3,1.2c-2.9,0-7.1-3.1-11.2-6.1
	c-6.3-4.6-13.5-9.8-22.7-9.8c-24.4,0-33.3,25-33.3,41.9c0,16.8,8.9,41.9,33.3,41.9c9.2,0,16.3-5.2,22.7-9.8c4.1-3,8.3-6.1,11.2-6.1
	c0.4,0,0.8,0,1.3,1.2v11.4c0,28.1-7.7,46-9.4,49.6c-0.3,0.4-0.5,0.8-0.7,1.3l-0.3,0.6c-7.2,17.7-10.8,37-10.8,57.4v12.9
	c0,0.9,0.1,1.7,0.4,2.6c2.8,8.5,9.1,13.4,17.1,13.4c8.2,0,14.8-4.9,20.7-9.2c4.7-3.5,9.2-6.7,13.1-6.7c16.7,0,17.1,25.4,17.1,25.7
	c0,0.3-0.5,25.7-17.1,25.7c-3.9,0-8.4-3.3-13.1-6.7c-5.9-4.3-12.6-9.2-20.7-9.2c-8,0-14.3,4.9-17.1,13.3c-0.3,0.8-0.4,1.7-0.4,2.6
	v12.9c0,20.4,3.6,39.7,10.8,57.4l0.3,0.6c0.8,2.1,2.6,3.8,4.7,4.6c2.2,0.8,4.6,0.6,6.6-0.4c0.2-0.1,19-9.8,50.4-9.8h11.4
	c1.2,0.5,1.2,0.9,1.2,1.3c0,2.9-3.1,7.1-6.1,11.2c-4.6,6.3-9.8,13.5-9.8,22.7c0,24.4,25,33.3,41.9,33.3c16.8,0,41.9-8.9,41.9-33.3
	c0-9.2-5.2-16.3-9.8-22.7c-3-4.1-6.1-8.3-6.1-11.2c0-0.4,0-0.8,1.2-1.3h11.4c31.4,0,50.2,9.7,50.3,9.8c1.3,0.7,2.8,1,4.3,0.9
	c16.9,6.4,35.1,9.6,54.3,9.6H323c0.9,0,1.7-0.1,2.6-0.4c8.5-2.8,13.4-9.1,13.4-17.1c0-8.2-4.9-14.8-9.2-20.7
	c-3.5-4.7-6.7-9.2-6.7-13.1c0-16.7,25.4-17.1,25.7-17.1c0.3,0,25.7,0.5,25.7,17.1c0,3.9-3.3,8.4-6.7,13.1
	c-4.3,5.9-9.2,12.6-9.2,20.7c0,8,4.9,14.3,13.4,17.1c0.8,0.3,1.7,0.4,2.6,0.4h12.9c20.4,0,39.7-3.6,57.4-10.8l0.6-0.3
	c2.1-0.8,3.8-2.6,4.6-4.7c0.8-2.1,0.6-4.5-0.4-6.6c-0.1-0.2-9.8-19-9.8-50.4v-11.4c0.5-1.2,1-1.2,1.3-1.2c2.9,0,7.1,3.1,11.2,6.1
	c6.3,4.6,13.5,9.8,22.7,9.8c24.4,0,33.3-25,33.3-41.9C508.2,332.2,499.3,307.2,474.9,307.2z M254.3,124.3c0-0.1,0-0.3,0-0.4
	c0-3.6,0.1-7.2,0.4-10.8c0-0.4,0.1-0.8,0.1-1.1c0.3-3.2,0.6-6.4,1.1-9.5c0.1-0.7,0.2-1.4,0.4-2.1c0.4-2.6,1-5.2,1.6-7.8
	c0.4-1.7,0.8-3.3,1.2-4.8c0.1-0.5,0.3-0.9,0.4-1.4c0.7-2.4,1.4-4.5,2-6.2c9.5,3.4,26.4,8,49.3,8h12.9c0.9,0,1.7-0.1,2.6-0.4
	c8.5-2.8,13.4-9.1,13.4-17.1c0-8.2-4.9-14.8-9.2-20.7c-3.5-4.7-6.7-9.2-6.7-13.1c0-16.7,25.4-17.1,25.7-17.1
	c0.3,0,25.7,0.5,25.7,17.1c0,3.9-3.3,8.4-6.7,13.1c-4.3,5.9-9.2,12.6-9.2,20.7c0,8,4.9,14.3,13.4,17.1c0.8,0.3,1.7,0.4,2.6,0.4h12.9
	c23,0,40.1-4.6,49.5-8.1c4.7,13.8,7,28.7,7,44.3v11.4c-0.5,1.2-1,1.2-1.3,1.2c-2.9,0-7.1-3.1-11.2-6.1c-6.3-4.6-13.5-9.8-22.7-9.8
	c-24.4,0-33.3,25-33.3,41.9c0,16.8,8.9,41.9,33.3,41.9c9.2,0,16.3-5.2,22.7-9.8c4.1-3,8.3-6.1,11.2-6.1c0.4,0,0.8,0,1.3,1.2v11.4
	c0,15.6-2.4,30.5-7,44.3c-8.4-3-22.8-7-42-7.9c-2.8-0.1-5.5-0.2-8.3-0.2h-12.9c-0.9,0-1.7,0.1-2.6,0.4c-8.5,2.8-13.4,9.1-13.4,17.1
	c0,8.2,4.9,14.8,9.2,20.7c3.5,4.7,6.7,9.2,6.7,13.1c0,16.7-25.4,17.1-25.7,17.1h0c-4.4-0.2-24.8-2.1-24.8-17.1
	c0-3.9,3.3-8.4,6.7-13.1c4.3-5.9,9.2-12.6,9.2-20.7c0-8-4.9-14.3-13.4-17.1c-0.8-0.3-1.7-0.4-2.6-0.4h-0.6c-0.1,0-0.1,0-0.2,0h-12.9
	c-17.1,0-33.4,2.6-48.6,7.6c-0.6-1.7-1.3-3.7-1.9-6c-0.1-0.4-0.2-0.8-0.4-1.2c-0.4-1.5-0.8-3.1-1.2-4.9c-0.6-2.5-1.1-5.1-1.5-7.7
	c-0.1-0.7-0.2-1.4-0.4-2.2c-0.5-3.1-0.9-6.3-1.1-9.5c0-0.4-0.1-0.8-0.1-1.1c-0.3-3.6-0.4-7.2-0.4-10.8c0-0.1,0-0.3,0-0.4v-11.4
	c0.5-1.2,0.9-1.2,1.3-1.2c2.9,0,7.1,3.1,11.2,6.1c6.3,4.6,13.5,9.8,22.7,9.8h0c24.4,0,33.3-25,33.3-41.9c0-16.8-8.9-41.9-33.3-41.9
	h0c-9.2,0-16.3,5.2-22.7,9.8c-4.1,3-8.3,6.1-11.2,6.1c-0.4,0-0.8,0-1.3-1.2V124.3z M71,172.7c-8.2,0-14.8,4.9-20.7,9.2
	c-4.7,3.5-9.2,6.7-13.1,6.7c-16.7,0-17.1-25.4-17.1-25.7c0-0.3,0.5-25.7,17.1-25.7c3.9,0,8.4,3.3,13.1,6.7
	c5.9,4.3,12.6,9.2,20.7,9.2c8,0,14.3-4.9,17.1-13.4c0.3-0.8,0.4-1.7,0.4-2.6v-12.9c0-23-4.6-40.1-8.1-49.5c13.8-4.7,28.7-7,44.3-7
	h11.4c1.2,0.5,1.2,0.9,1.2,1.3c0,2.9-3.1,7.1-6.1,11.2c-4.6,6.3-9.8,13.5-9.8,22.7c0,24.4,25,33.3,41.9,33.3
	c16.8,0,41.9-8.9,41.9-33.3c0-9.2-5.2-16.3-9.8-22.7c-3-4.1-6.1-8.3-6.1-11.2c0-0.4,0-0.8,1.2-1.3h11.4c15.5,0,30.4,2.3,44.2,7
	c-2.7,7.9-4.7,16.1-6,24.5c-0.1,0.7-0.2,1.3-0.3,1.9c-0.2,1.6-0.4,3.3-0.6,5c-0.1,0.8-0.2,1.5-0.3,2.4c-0.2,2-0.3,4-0.4,6
	c0,0.5-0.1,1-0.1,1.6c-0.1,2.7-0.2,5.4-0.2,8.2v12.9c0,0.9,0.1,1.7,0.4,2.6c2.8,8.5,9.1,13.4,17.1,13.4h0c8.2,0,14.8-4.9,20.7-9.2
	c4.7-3.5,9.2-6.7,13.1-6.7c16.7,0,17.1,25.4,17.1,25.7c0,0.3-0.5,25.7-17.1,25.7c-3.9,0-8.4-3.3-13.1-6.7
	c-5.9-4.3-12.6-9.2-20.7-9.2h0c-8,0-14.3,4.9-17.1,13.4c-0.3,0.8-0.4,1.7-0.4,2.6v12.9c0,2.7,0.1,5.5,0.2,8.2c0,0.5,0.1,1.1,0.1,1.6
	c0.1,2,0.3,4,0.4,6c0.1,0.8,0.2,1.6,0.3,2.4c0.2,1.7,0.4,3.3,0.6,5c0.1,0.7,0.2,1.3,0.3,1.9c1.3,8.3,3.2,16.3,5.8,24.1
	c-6.7,2.5-19.4,6.2-36.7,7.2c-1.5,0.1-3.1,0.2-4.6,0.2c-1.2,0-2.3,0.1-3.5,0.1h-10.7c-1.1-0.5-1.1-0.9-1.1-1.3
	c0-2.9,3.1-7.1,6.1-11.2c4.6-6.3,9.8-13.5,9.8-22.7c0-23.2-22.6-32.4-39.3-33.2c-1.2-0.1-2.3-0.1-3.4-0.1
	c-16.8,0-41.9,8.9-41.9,33.3c0,9.2,5.2,16.3,9.8,22.7c3,4.1,6.1,8.3,6.1,11.2c0,0.4,0,0.8-1.2,1.3h-11.4c-0.1,0-0.1,0-0.2,0
	c-15.2-0.1-29.8-2.4-43.3-7c3.4-9.5,8.1-26.5,8.1-49.5v-12.9c0-0.9-0.1-1.7-0.4-2.6C85.2,177.6,79,172.7,71,172.7z M257.7,387.7
	c0,0.1,0,0.3,0,0.4c0,3.6-0.1,7.2-0.4,10.8c0,0.4-0.1,0.8-0.1,1.1c-0.3,3.2-0.6,6.4-1.1,9.5c-0.1,0.7-0.2,1.4-0.4,2.1
	c-0.4,2.6-1,5.2-1.6,7.8c-0.4,1.7-0.8,3.3-1.2,4.8c-0.1,0.5-0.3,0.9-0.4,1.4c-0.7,2.4-1.4,4.5-2,6.3c-9.5-3.4-26.4-8-49.3-8h-12.9
	c-0.9,0-1.7,0.1-2.6,0.4c-8.5,2.8-13.4,9.1-13.4,17.1c0,8.2,4.9,14.8,9.2,20.7c3.5,4.7,6.7,9.2,6.7,13.1c0,16.7-25.4,17.1-25.7,17.1
	c-0.3,0-25.7-0.5-25.7-17.1c0-3.9,3.3-8.4,6.7-13.1c4.3-5.9,9.2-12.6,9.2-20.7c0-8-4.9-14.3-13.4-17.1c-0.8-0.3-1.7-0.4-2.6-0.4
	h-12.9c-23,0-40.1,4.7-49.5,8.1c-4.7-13.8-7-28.7-7-44.3v-11.4c0.5-1.2,0.9-1.2,1.3-1.2c2.9,0,7.1,3.1,11.2,6.1
	c6.3,4.6,13.5,9.8,22.7,9.8c24.4,0,33.3-25,33.3-41.9c0-16.8-8.9-41.9-33.3-41.9c-9.2,0-16.3,5.2-22.7,9.8c-4.1,3-8.3,6.1-11.2,6.1
	c-0.4,0-0.8,0-1.3-1.2v-11.4c0-15.6,2.4-30.5,7-44.3c8.4,3,22.8,7,42,7.9c2.8,0.1,5.5,0.2,8.3,0.2h12.9c0.9,0,1.7-0.1,2.6-0.4
	c8.5-2.8,13.3-9.1,13.3-17.1c0-8.2-4.9-14.8-9.2-20.7c-3.5-4.7-6.7-9.2-6.7-13.1c0-16.7,25.4-17.1,25.7-17.1h0
	c4.4,0.2,24.8,2.1,24.8,17.1c0,3.9-3.3,8.4-6.7,13.1c-4.3,5.9-9.2,12.6-9.2,20.7c0,8,4.9,14.3,13.4,17.1c0.8,0.3,1.7,0.4,2.6,0.4
	h0.6c0.1,0,0.1,0,0.2,0h12.9c17.1,0,33.4-2.6,48.6-7.6c0.6,1.7,1.3,3.7,1.9,6c0.1,0.4,0.3,0.8,0.4,1.2c0.4,1.5,0.8,3.1,1.2,4.9
	c0.6,2.5,1.1,5.1,1.6,7.7c0.1,0.7,0.2,1.4,0.4,2.2c0.5,3.1,0.9,6.3,1.1,9.5c0,0.4,0.1,0.8,0.1,1.1c0.3,3.6,0.4,7.2,0.4,10.8
	c0,0.1,0,0.3,0,0.4v11.4c-0.5,1.2-0.9,1.2-1.3,1.2c-2.9,0-7.1-3.1-11.2-6.1c-6.3-4.6-13.5-9.8-22.7-9.8h0c-24.4,0-33.3,25-33.3,41.9
	c0,16.8,8.9,41.9,33.3,41.9h0c9.2,0,16.3-5.2,22.7-9.8c4.1-3,8.3-6.1,11.2-6.1c0.4,0,0.8,0,1.3,1.2V387.7z M474.9,374.8
	c-3.9,0-8.4-3.3-13.1-6.7c-5.9-4.3-12.6-9.2-20.7-9.2c-8,0-14.3,4.9-17.1,13.3c-0.3,0.8-0.4,1.7-0.4,2.6v12.9
	c0,23,4.6,40.1,8.1,49.5c-13.8,4.7-28.7,7-44.3,7h-11.4c-1.2-0.5-1.2-0.9-1.2-1.3c0-2.9,3.1-7.1,6.1-11.2c4.6-6.3,9.8-13.5,9.8-22.7
	c0-24.4-25-33.3-41.9-33.3c-16.8,0-41.9,8.9-41.9,33.3c0,9.2,5.2,16.3,9.8,22.7c3,4.1,6.1,8.3,6.1,11.2c0,0.4,0,0.8-1.2,1.3h-11.4
	c-15.5,0-30.4-2.3-44.1-7c2.7-7.9,4.7-16.1,6-24.5c0.1-0.6,0.2-1.3,0.3-1.9c0.2-1.6,0.4-3.3,0.6-4.9c0.1-0.8,0.2-1.5,0.3-2.4
	c0.2-2,0.3-4,0.4-6c0-0.5,0.1-1,0.1-1.6c0.1-2.7,0.2-5.4,0.2-8.2v-12.9c0-0.9-0.1-1.7-0.4-2.6c-2.8-8.5-9.1-13.3-17.1-13.3h0
	c-8.2,0-14.8,4.9-20.7,9.2c-4.7,3.5-9.2,6.7-13.1,6.7c-16.7,0-17.1-25.4-17.1-25.7c0-0.3,0.5-25.7,17.1-25.7c3.9,0,8.4,3.3,13.1,6.7
	c5.9,4.3,12.6,9.2,20.7,9.2h0c8,0,14.3-4.9,17.1-13.4c0.3-0.8,0.4-1.7,0.4-2.6v-12.9c0-2.7-0.1-5.5-0.2-8.2c0-0.5-0.1-1-0.1-1.6
	c-0.1-2-0.3-4-0.4-6c-0.1-0.8-0.2-1.6-0.3-2.4c-0.2-1.6-0.4-3.3-0.6-4.9c-0.1-0.7-0.2-1.3-0.3-1.9c-1.3-8.3-3.2-16.3-5.8-24.1
	c6.7-2.5,19.4-6.2,36.7-7.2c1.5-0.1,3.1-0.1,4.6-0.2c1.2,0,2.3-0.1,3.5-0.1h10.7c1.1,0.5,1.1,0.9,1.1,1.3c0,2.9-3.1,7.1-6.1,11.2
	c-4.6,6.3-9.8,13.5-9.8,22.7c0,23.2,22.6,32.4,39.3,33.2c1.2,0.1,2.3,0.1,3.4,0.1c16.8,0,41.9-8.9,41.9-33.3
	c0-9.2-5.2-16.3-9.8-22.7c-3-4.1-6.1-8.3-6.1-11.2c0-0.4,0-0.8,1.2-1.3h11.4c0.1,0,0.1,0,0.2,0c15.2,0.1,29.7,2.4,43.3,7
	c-3.4,9.5-8.1,26.5-8.1,49.5v12.9c0,0.9,0.1,1.7,0.4,2.6c2.8,8.5,9.1,13.4,17.1,13.4c8.2,0,14.8-4.9,20.7-9.2
	c4.7-3.5,9.2-6.7,13.1-6.7c16.7,0,17.1,25.4,17.1,25.7C492,349.3,491.6,374.8,474.9,374.8z"/>
</svg>
