<?xml version="1.0" encoding="utf-8"?>
<!-- Generator: Adobe Illustrator 20.0.0, SVG Export Plug-In . SVG Version: 6.00 Build 0)  -->
<svg version="1.1" id="Capa_1" xmlns="http://www.w3.org/2000/svg" xmlns:xlink="http://www.w3.org/1999/xlink" x="0px" y="0px"
	 viewBox="0 0 512 512" style="enable-background:new 0 0 512 512;" xml:space="preserve">
<style type="text/css">
	.st0{fill:#4CB648;}
</style>
<g>
	<g>
		<path class="st0" d="M482,339.4c-68.7-8.5-137.8-16-207-20.9c-5.3-29.3-10-53.1-2.3-71.9c0.9-0.8,7.1-11.4,8.1-12.8
			c3.8-5,7.6-9.9,11.7-14.6c11.6-13.2,24.2-25.6,36.4-38.2c20-20.5,26.4-50.5,6.5-74.1c-8.3-9.9-21.4-16.6-34.9-18.4
			c-51.7-24.6-105.4-44.2-160.5-60c-42-12-65.2,52-22.9,64.2c38.4,11,76.1,23.9,112.9,39c-23.8,24.2-46.7,50.5-57.5,81.7
			c-11.4,32.8-9.9,66.7-5,100.3c-17.2-0.2-34.3-0.7-51.3-2.6c-30.2-3.4-65.6-4.6-91.4,14.3c-48,35.2-12.7,87.3-8,132.5
			c4.5,43.8,71.6,31.7,67.1-11.8c-2.2-21.7-12.4-41.2-15.9-62.6c-1.7-10.3-4.8-4.3,5.9-5.6c15.6-2,30.1,0.7,45.6,2
			c48.7,4.1,97.9,2.8,146.7,6.5c70.1,5.3,140.2,12.3,210.1,20.9C520,412.6,525.5,344.7,482,339.4z"/>
		<circle class="st0" cx="414.5" cy="113.4" r="53.4"/>
	</g>
</g>
</svg>
