<?xml version="1.0" encoding="utf-8"?>
<!-- Generator: Adobe Illustrator 20.0.0, SVG Export Plug-In . SVG Version: 6.00 Build 0)  -->
<svg version="1.1" id="Capa_1" xmlns="http://www.w3.org/2000/svg" xmlns:xlink="http://www.w3.org/1999/xlink" x="0px" y="0px"
	 viewBox="0 0 512 512" style="enable-background:new 0 0 512 512;" xml:space="preserve">
<style type="text/css">
	.st0{fill:#1D417A;stroke:#1D417A;stroke-width:7;stroke-miterlimit:10;}
</style>
<g>
	<path class="st0" d="M413.4,184.6l-1-1.8c-1.3-2.4-4.3-3.3-6.7-1.9l-2.9,1.6c-2.9-3.1-6.6-5.4-10.5-6.6l0.1-3.1
		c0.1-2.7-2.1-5-4.8-5.1l-3.1-0.1c-2.7-0.1-5,2.1-5,4.9l-0.1,3c-2,0.5-4,1.3-6,2.3c-1.9,1.1-3.6,2.4-5.1,3.8l-2.5-1.5
		c-2.3-1.4-5.3-0.7-6.7,1.7l-1.6,2.7c-1.4,2.4-0.7,5.4,1.7,6.8l2.7,1.6c-1.1,4-1.1,8.3,0,12.5l-2.9,1.6c-2.4,1.3-3.2,4.3-1.9,6.7
		l1,1.8c1.3,2.4,4.3,3.3,6.7,1.9l2.9-1.6c2.9,3.1,6.5,5.4,10.5,6.6l-0.1,3.1c0,2.7,2.1,5,4.8,5.1l3.1,0.1c2.7,0.1,5-2.1,5-4.9l0.1-3
		c2-0.5,4-1.3,5.9-2.3c1.9-1.1,3.6-2.4,5.1-3.8l2.5,1.5c2.3,1.4,5.3,0.7,6.8-1.7l1.6-2.7c1.4-2.3,0.7-5.4-1.7-6.8l-2.7-1.6
		c1.1-4,1.1-8.3,0-12.5l2.9-1.6C413.8,190,414.7,187,413.4,184.6z M395.6,208.2c-5,5.9-13.7,6.6-19.5,1.7c-5.8-5-6.6-13.8-1.6-19.7
		c5-5.9,13.7-6.6,19.5-1.6C399.8,193.5,400.6,202.3,395.6,208.2z M447.2,95.6c-3.7-4.5-10.3-5-14.7-1.3c-4.4,3.7-5,10.4-1.3,14.8
		c33,39.8,52.9,91,52.9,146.9c0,47-14.1,90.7-38.2,127c-2.7,2.8-7,3.4-11.9-1.5l-35.5-35.8c-3.8-3.8-2.7-8.9-2.7-8.9l7.8-29.5
		c0.8-3.2-0.1-6.6-2.4-8.9l-53.9-54.3c-2.3-2.3-5.7-3.2-8.8-2.4l-25.5,6.9c0,0-9.1,1.8-2.3,8.6c6.7,6.8,35.1,35.4,35.1,35.4
		c1.2,1.2,1.7,3.1,1.3,4.7l-10.5,39.5c-0.4,1.7-1.8,3-3.4,3.5L293.9,351c-1.7,0.5-3.5,0-4.7-1.3c0,0-28.7-29-35.1-35.4
		c-6.3-6.4-8.5,2.3-8.5,2.3l-6.8,25.7c-0.8,3.2,0.1,6.6,2.4,8.9l53.9,54.3c2.3,2.3,5.7,3.2,8.8,2.4l29.2-7.9c0.1,0,5-1,8.8,2.7
		l35.2,35.5c5.5,5.5,3.1,9.5-0.2,12.2c-34.8,21.9-75.9,34.6-120,34.6c-62.8,0-119.5-25.6-160.6-67.1
		c-41.1-41.5-66.5-98.7-66.5-161.9c0-63.3,25.4-120.4,66.5-161.9c41.1-41.5,97.9-67.1,160.6-67.1c55.6,0,106.4,20.1,146,53.5
		c4.4,3.7,11,3.2,14.7-1.3c3.7-4.5,3.1-11.1-1.3-14.8v0C373.2,28,317.5,6,256.9,6C119.9,6,8.8,118,8.8,256.1
		c0,138.1,111.1,250.1,248.1,250.1c43.7,0,84.7-11.4,120.3-31.4l0.9-0.3l1.4-1c75-43,125.5-124.2,125.5-217.4
		C505,195,483.3,139,447.2,95.6z M331.8,144.1l3.1,0.1c2.7,0.1,5-2.1,5-4.9l0.1-3c2-0.5,4-1.3,6-2.4c1.9-1.1,3.6-2.4,5.1-3.8
		l2.5,1.5c2.3,1.4,5.3,0.7,6.7-1.7l1.6-2.7c1.4-2.4,0.7-5.4-1.7-6.8l-2.7-1.6c1.1-4,1.1-8.3,0-12.5l2.9-1.6c2.4-1.3,3.2-4.3,1.9-6.7
		l-1-1.8c-1.3-2.4-4.3-3.3-6.7-1.9l-2.9,1.6c-2.9-3.1-6.6-5.4-10.5-6.6l0.1-3.1c0.1-2.7-2.1-5-4.8-5.1l-3.2-0.1
		c-2.7-0.1-5,2.1-5,4.9l-0.1,3c-2,0.5-4,1.3-6,2.3c-1.9,1.1-3.6,2.4-5.1,3.8l-2.5-1.5c-2.3-1.4-5.3-0.7-6.7,1.7l-1.6,2.7
		c-1.4,2.3-0.7,5.4,1.7,6.8l2.7,1.6c-1.1,4-1.1,8.3,0,12.5l-2.9,1.6c-2.4,1.3-3.2,4.3-1.9,6.7l1,1.8c1.3,2.4,4.3,3.3,6.7,1.9
		l2.9-1.6c2.9,3.1,6.6,5.4,10.5,6.6l-0.1,3.1C326.9,141.8,329,144,331.8,144.1z M325.3,123.2c-5.8-5-6.6-13.8-1.6-19.7
		c5-5.9,13.7-6.6,19.5-1.7c5.8,5,6.6,13.8,1.6,19.7C339.9,127.5,331.1,128.2,325.3,123.2z M199.8,378.6l4.4-0.3
		c4-0.3,7.1-3.8,6.8-7.9l-0.3-4.7c-0.3-4.1-3.8-7.1-7.8-6.8l-4.6,0.3c-2.2-5.8-5.8-11.1-10.6-15.2l2.2-4.5c1.8-3.7,0.2-8.1-3.4-9.9
		l-2.8-1.3c-3.6-1.8-8-0.2-9.8,3.4l-2.2,4.5c-6.2-1.3-12.6-0.9-18.5,1.1l-2.6-3.9c-2.3-3.4-6.8-4.2-10.2-2l-3.9,2.7
		c-3.3,2.3-4.2,6.9-1.9,10.3l2.5,3.7c-2,2.4-3.8,5-5.2,8c-1.4,3-2.4,6-3,9.1l-4.4,0.3c-4,0.3-7.1,3.8-6.8,7.9l0.4,4.7
		c0.3,4.1,3.8,7.1,7.9,6.8l4.6-0.4c2.2,5.8,5.8,11.1,10.6,15.2l-2.2,4.5c-1.8,3.7-0.2,8.1,3.4,9.9l2.8,1.4c3.6,1.8,8,0.2,9.8-3.4
		l2.2-4.5c6.2,1.3,12.6,0.9,18.4-1.1l2.6,3.9c2.3,3.4,6.8,4.2,10.2,2l3.9-2.7c3.3-2.3,4.2-6.9,1.9-10.3l-2.5-3.7
		c2-2.4,3.8-5.1,5.2-8C198.3,384.7,199.3,381.7,199.8,378.6z M181.5,386.5c-8,9.6-22.2,10.8-31.7,2.7c-9.5-8.1-10.7-22.4-2.7-32
		c8-9.6,22.2-10.8,31.7-2.7C188.3,362.6,189.5,376.9,181.5,386.5z M271.1,210c0.1-0.6,0.3-1.2,0.4-1.8c0.2-1.1,0.5-2.1,0.6-3.2
		c0,0,0,0,0,0l7.9,0c4.2,0,7.6-3.4,7.6-7.7l0-13.1c0-4.2-3.4-7.7-7.6-7.7l-7.7,0c-1.1-6.3-2.8-12.5-5.4-18.7c-2.3-5.4-5-10.4-8.2-15
		l5.3-5.3c3-3,3-7.9,0-10.9l-9.2-9.2c-3-3-7.8-3-10.8,0l-5.1,5.2c-10-7.2-21.5-12-33.6-14.2l0-7.1c0-4.2-3.4-7.7-7.6-7.7l-12.9,0
		c-4.2,0-7.6,3.4-7.6,7.7v7c-6.1,1.1-12.2,2.8-18.2,5.4c-5.6,2.4-10.8,5.4-15.6,8.8l-4.9-5c-3-3-7.8-3-10.8,0l-9.1,9.2
		c-3,3-3,7.9,0,10.9l5,5c-7,10.1-11.7,21.8-13.7,34l-7.3,0c-4.2,0-7.6,3.4-7.6,7.7l0,13.1c0,4.2,3.4,7.7,7.6,7.7l7.5,0
		c1.1,5.9,2.8,11.8,5.2,17.5c2.4,5.8,5.4,11.1,8.9,16l-5.5,5.5c-3,3-3,7.9,0,10.9l9.2,9.2c3,3,7.8,3,10.8,0l5.6-5.7
		c0.1,0,0.1,0.1,0.2,0.1c0.9,0.6,1.8,1.2,2.7,1.8c0.7,0.4,1.3,0.8,2,1.2c0.3,0.2,0.5,0.3,0.8,0.5c8.4,5,17.7,8.4,27.4,10.1l0,8
		c0,4.2,3.4,7.7,7.6,7.7h12.9c4.2,0,7.6-3.4,7.6-7.7l0-8c6-1.1,12-2.8,17.8-5.3c5.5-2.3,10.6-5.2,15.3-8.5l5.6,5.6c3,3,7.8,3,10.8,0
		l9.2-9.2c3-3,3-7.9,0-10.9l-5.6-5.7c5.9-8.5,10.1-18,12.5-28C271.1,210.2,271.1,210.1,271.1,210z M249.1,213.9
		c-6,15-17.7,27.6-33.6,34.4c-15.9,6.8-33,6.4-47.9,0.4c-14.9-6.1-27.4-17.8-34.2-33.9c-6.7-16.1-6.4-33.3-0.4-48.3
		c6-15,17.7-27.6,33.6-34.4c15.9-6.8,33-6.4,47.9-0.4c14.9,6.1,27.4,17.8,34.1,33.9C255.5,181.7,255.2,198.9,249.1,213.9z"/>
</g>
</svg>
