<?xml version="1.0" encoding="utf-8"?>
<!-- Generator: Adobe Illustrator 20.0.0, SVG Export Plug-In . SVG Version: 6.00 Build 0)  -->
<svg version="1.1" id="Layer_1" xmlns="http://www.w3.org/2000/svg" xmlns:xlink="http://www.w3.org/1999/xlink" x="0px" y="0px"
	 viewBox="0 0 212.6 212.6" style="enable-background:new 0 0 212.6 212.6;" xml:space="preserve">
<style type="text/css">
	.st0{fill:#21417A;stroke:#FFFFFF;}
</style>
<path class="st0" d="M115.6,90.4c-0.8,0.8-1.3,1.9-1.3,3c-0.5,0.2-1.2,0.5-1.8,1.1c-1.2,1.2-1.4,2.5-1.4,3.3
	c-0.5,0.2-1.1,0.6-1.6,1.1c-1,1-1.5,2.2-1.5,3.5c0,1.2,0.5,2.3,1.3,3l9.6,9.6c0,0,0,0,0,0c0,0,0,0,0,0l0,0l0,0
	c3,2.9,10.9,5.7,17-0.4c4.8-4.8,5.7-8.8,5.9-12.3c0.2-3.4-1.2-9.5-5.9-16.4c-3.2-4.7-6.6-8.7-10.2-6.5c-0.8,0.5-1.4,1.3-1.6,2.4
	c-0.1,0.8-0.1,1.7,0.1,2.6l-7-7c-0.2-0.2-1.4-1.4-3.3-1.5c-0.9,0-2.3,0.2-3.6,1.6c-2.5,2.5-1.4,5.4-0.1,6.7l5.6,5.6
	c-0.1,0.1-0.2,0.2-0.3,0.3L115.6,90.4z M119,97.3c0.8-0.8,0.8-2.1,0-2.9l-0.5-0.5c-0.1-0.1-0.1-0.4,0.1-0.6l0.2-0.2
	c0.2-0.2,0.4-0.2,0.6-0.1c0.8,0.8,2.1,0.8,2.9,0c0.8-0.8,0.8-2.1,0-2.9l-8.7-8.7c-0.4-0.4-0.2-0.9,0.1-1.1c0.4-0.4,0.8-0.3,1.1,0
	l14.9,14.9c0.5,0.5,1.2,0.7,1.8,0.5c0.7-0.1,1.2-0.6,1.4-1.3c0.2-0.5,0.9-3.2-2.6-7.5c-1.2-1.5-1.6-2.4-1.8-3.2
	c-0.1-0.4,0.3-0.6,0.6-0.4c0.8,0.6,1.9,2.1,3.8,4.8c4.1,6.1,5.4,11.3,5.2,13.9c-0.1,2.1-0.3,5.3-4.8,9.7c-4.9,4.9-10.8,0.9-12.1-0.4
	l-8.9-8.9c-0.1-0.1-0.1-0.4,0.1-0.6l0.2-0.2c0.2-0.2,0.4-0.2,0.6-0.1c0.8,0.8,2.1,0.8,2.9,0c0.8-0.8,0.8-2.1,0-2.9l-0.7-0.7
	c-0.1-0.1-0.1-0.4,0.1-0.6l0.2-0.2c0.2-0.2,0.4-0.2,0.6-0.1C116.9,98.1,118.2,98.1,119,97.3z M70.2,89.4c-1.1,0-2,0.9-2,2s0.9,2,2,2
	c1.1,0,2-0.9,2-2S71.3,89.4,70.2,89.4z M164.7,68.8v-8.2c0-0.7-0.6-1.2-1.2-1.2H49.1c-0.7,0-1.2,0.6-1.2,1.2v69.9
	c0,0.7,0.6,1.2,1.2,1.2h45.2v6H76.6L57.9,150c-1.2,0.8-1.3,2.8,0.5,3.7h95.7c0,0,0,0,0,0c1.8-0.9,1.7-2.9,0.5-3.7l-18.2-11.8
	c-0.3-0.2-0.7-0.3-1.1-0.3h-17.1v-6h45.2c0.7,0,1.2-0.6,1.2-1.2V74.8c-1.8-2-4-0.8-4,1v51.9H51.9V63.4h108.8v4.5
	C160.7,69.6,162.9,70.8,164.7,68.8z M134.8,141.8l12,7.8h-81l12-7.8H134.8z M98.3,131.7h15.9v6H98.3V131.7z M70.2,80.3
	c-1.1,0-2,0.9-2,2c0,1.1,0.9,2,2,2c1.1,0,2-0.9,2-2C72.2,81.2,71.3,80.3,70.2,80.3z M98.8,80.3h-21c-1.1,0-2,0.9-2,2
	c0,1.1,0.9,2,2,2h21c1.1,0,2-0.9,2-2C100.8,81.2,99.9,80.3,98.8,80.3z M70.2,98.6c-1.1,0-2,0.9-2,2c0,1.1,0.9,2,2,2c1.1,0,2-0.9,2-2
	C72.2,99.5,71.3,98.6,70.2,98.6z M70.2,107.8c-1.1,0-2,0.9-2,2c0,1.1,0.9,2,2,2c1.1,0,2-0.9,2-2C72.2,108.7,71.3,107.8,70.2,107.8z
	 M95.2,98.8h-21c-1.1,0-2,0.9-2,2c0,1.1,0.9,2,2,2h21c1.1,0,2-0.9,2-2C97.2,99.7,96.3,98.8,95.2,98.8z M98.8,89.5h-21
	c-1.1,0-2,0.9-2,2c0,1.1,0.9,2,2,2h21c1.1,0,2-0.9,2-2C100.8,90.4,99.9,89.5,98.8,89.5z M98.8,108.1h-21c-1.1,0-2,0.9-2,2
	c0,1.1,0.9,2,2,2h21c1.1,0,2-0.9,2-2C100.8,108.9,99.9,108.1,98.8,108.1z"/>
</svg>
