<?xml version="1.0" encoding="utf-8"?>
<!-- Generator: Adobe Illustrator 20.0.0, SVG Export Plug-In . SVG Version: 6.00 Build 0)  -->
<svg version="1.1" id="Capa_1" xmlns="http://www.w3.org/2000/svg" xmlns:xlink="http://www.w3.org/1999/xlink" x="0px" y="0px"
	 viewBox="0 0 512 512" style="enable-background:new 0 0 512 512;" xml:space="preserve">
<style type="text/css">
	.st0{fill:#1D417A;stroke:#1D417A;stroke-width:7;stroke-miterlimit:10;}
</style>
<path class="st0" d="M116.9,177l18.8,20.7h22.3c0.7,0,1.3-0.7,1.3-1.5v-38.3c0-0.8-0.6-1.5-1.3-1.5h-22.3L116.9,177z M371.5,156.4
	c-10.3,0-18.7,9.2-18.7,20.7c0,11.4,8.4,20.7,18.7,20.7s18.7-9.3,18.7-20.7C390.2,165.6,381.8,156.4,371.5,156.4z M82.2,215.4v24.6
	c0,0.8,0.6,1.5,1.3,1.5h34.7c0.7,0,1.3-0.7,1.3-1.5v-24.6l-18.7-20.7L82.2,215.4z M119.6,138.7v-24.6c0-0.8-0.6-1.5-1.3-1.5H83.6
	c-0.7,0-1.3,0.7-1.3,1.5v24.6l18.7,20.7L119.6,138.7z M66.2,156.4H44c-0.7,0-1.3,0.7-1.3,1.5v38.3c0,0.8,0.6,1.5,1.3,1.5h22.3
	L85,177L66.2,156.4z M507.4,177c0-38.7-18.7-72.6-46.7-91.2c-0.1-5.9-0.5-14.9-2.7-23.7c-1.2-4.8-3-9.6-6.3-14
	c-3.2-4.4-8.8-8-15-7.9h-50.3c-7.5-0.1-13.5,5.1-16.4,10.3c-4.7,7.9-6.3,16.9-7.3,24.7c-0.5,3.9-0.7,7.5-0.9,10.3
	c-4.6,3-8.9,6.5-12.9,10.2H163c-3.9-3.6-8-7-12.4-9.9c-0.1-5.9-0.5-14.9-2.7-23.7c-1.2-4.8-3-9.6-6.3-14c-3.2-4.4-8.8-8-15-7.9H76.3
	c-7.5-0.1-13.5,5.1-16.4,10.3c-4.7,7.9-6.3,16.9-7.3,24.7c-0.5,3.9-0.7,7.5-0.9,10.3C23.5,104.1,4.6,138.1,4.6,177
	c0,0.2,0,0.4,0,0.5c0,0,0,0.1,0,0.1c0,0,0,0.3,0,0.7c0,3.7,0.3,7.4,0.6,11C7.7,230.1,15.6,363.5,17,377.3c0.9,8.3,2.9,21.8,10.8,34
	c7.8,12.3,22.5,22.1,43.6,21.9c21.7,0.1,37.6-11,47.9-22.8c10.3-11.8,15.9-24.8,18.3-29.5c2.8-5.9,7.9-18.7,13.8-33.3
	c5.8-14.5,12.3-30.5,16.9-40.9c4.7-10.4,7.8-14.4,10.1-15.8c2.3-1.6,6.7-2.5,16.4-2.5h122.3c9.6-0.1,14.1,0.9,16.4,2.5
	c2.4,1.4,5.5,5.4,10.1,15.8c4.7,10.4,11.1,26.4,17,40.9c5.9,14.6,11,27.5,13.8,33.3c2.3,4.7,7.9,17.7,18.3,29.5
	c10.3,11.8,26.3,22.8,48,22.8h0.7c20.7,0,35.2-9.7,42.9-21.9c7.9-12.2,9.9-25.7,10.8-34c0.1-1.2,1.2-9.8,1.6-14.8
	c0.4-5.6-3.4-10.6-8.5-11c-5.1-0.4-9.6,3.8-10,9.4c-0.3,4-1.3,12.2-1.5,14.1c-0.7,7-2.5,17-7.4,24.4c-5,7.3-12.1,13.2-28.6,13.4
	c-16-0.1-26.6-7.5-34.7-16.6c-8.1-9.2-12.7-19.6-15.2-24.9c-2-4.1-7.4-17.5-13.2-32c-5.8-14.6-12.3-30.6-17.3-41.8
	c-5.1-11.1-9.5-19.2-17.2-24.3c-7.8-5-15.8-5.3-25.8-5.3H194.9c-10,0.1-18,0.3-25.8,5.3c-7.7,5.2-12.2,13.2-17.3,24.3
	c-5,11.1-11.5,27.2-17.3,41.8c-5.8,14.5-11.1,27.8-13.1,32c-2.5,5.3-7.1,15.7-15.2,24.9c-8.1,9.1-18.7,16.5-34.7,16.6
	c-16.5-0.2-23.6-6.2-28.6-13.4c-4.9-7.4-6.7-17.3-7.4-24.4c-0.7-6.8-3.9-57.1-6.7-104.8c-0.5-8.4-1-16.7-1.5-24.7
	c17.7,23.2,44.1,38,73.7,38c53.2,0,96.3-47.6,96.3-106.4c0-22.6-6.4-43.6-17.3-60.8l152.2,0c0,0,0,0,0.1-0.1
	c-10.9,17.3-17.4,38.2-17.4,60.9c0,58.8,43.1,106.4,96.3,106.4c29.4,0,55.7-14.6,73.4-37.5c-1.4,22.5-2.4,37.6-4.7,74
	c-0.4,5.6,3.5,10.5,8.6,10.9c5.1,0.4,9.5-3.9,9.9-9.5c3.7-58.7,3.9-62,8.4-130.9c0,0.1,0,0.1,0,0.2c0.5-4.2,0.8-8.4,0.8-12.8
	c0,0,0,0,0,0v0C507.4,177.5,507.4,177.3,507.4,177z M100.9,263c-43-0.1-77.7-38.5-77.8-85.9c0-33.2,17.1-62,42-76.3
	c2.6-1.5,4.4-4.3,4.9-7.5c0.1-0.8,0.1-1.5,0.1-2.2c0-2.3,0.2-11.5,1.9-19.4c0.8-4.1,2.1-7.8,3.2-9.6c0.5-0.9,1-1.2,1.1-1.3l0,0h50.3
	c0.1,0,0.2,0,0.2,0c0.1,0,0,0,0.6,0.6c1.1,1.3,2.9,6.1,3.6,11.4c0.8,5.3,1,11,1,14.7c0,1.7,0,2.9-0.1,3.4c-0.3,4,1.5,8,4.9,10
	c24.8,14.4,41.8,43.1,41.8,76.2C178.7,224.5,143.9,262.9,100.9,263z M411.1,263c-43-0.1-77.7-38.5-77.8-85.9c0-33.2,17-62,42-76.3
	c2.4-1.4,4.2-3.9,4.8-6.8c0.2-1,0.3-2,0.2-2.9c0-2.2,0.2-11.4,1.9-19.4c0.8-4.1,2.1-7.8,3.2-9.6c0.6-0.9,1-1.3,1.1-1.3h50.3
	c0.1,0,0.2,0,0.2,0c0.1,0,0,0,0.6,0.6c1.2,1.3,2.9,6.1,3.6,11.4c0.8,5.3,1,11,1,14.6c0,1.7,0,2.8,0,3.4c-0.1,1.1,0,2.2,0.2,3.3
	c0.6,2.9,2.3,5.4,4.7,6.8c24.8,14.4,41.8,43.1,41.8,76.2C488.8,224.5,454,262.9,411.1,263z M265.4,228.8c0,8.8,6.4,15.9,14.3,15.9
	c7.9,0,14.4-7.1,14.4-15.9c0-8.8-6.4-15.9-14.4-15.9C271.9,213,265.4,220.1,265.4,228.8z M411.1,200.1c-10.3,0-18.7,9.2-18.7,20.7
	c0,11.4,8.4,20.7,18.7,20.7c10.3,0,18.7-9.2,18.7-20.7C429.8,209.4,421.4,200.1,411.1,200.1z M215.1,228.8c0,8.8,6.4,15.9,14.3,15.9
	c7.9,0,14.4-7.1,14.4-15.9c0-8.8-6.4-15.9-14.4-15.9C221.5,213,215.1,220.1,215.1,228.8z M411.1,112.6c-10.3,0-18.7,9.3-18.7,20.7
	c0,11.4,8.4,20.7,18.7,20.7c10.3,0,18.7-9.2,18.7-20.7C429.8,121.9,421.4,112.6,411.1,112.6z M450.7,156.4
	c-10.3,0-18.7,9.2-18.7,20.7c0,11.4,8.4,20.7,18.7,20.7c10.3,0,18.7-9.3,18.7-20.7C469.4,165.6,461,156.4,450.7,156.4z"/>
</svg>
