<?xml version="1.0" encoding="utf-8"?>
<!-- Generator: Adobe Illustrator 20.0.0, SVG Export Plug-In . SVG Version: 6.00 Build 0)  -->
<svg version="1.1" id="Capa_1" xmlns="http://www.w3.org/2000/svg" xmlns:xlink="http://www.w3.org/1999/xlink" x="0px" y="0px"
	 viewBox="0 0 512 512" style="enable-background:new 0 0 512 512;" xml:space="preserve">
<style type="text/css">
	.st0{fill:#1F417A;stroke:#1F417A;stroke-width:4;}
</style>
<path class="st0" d="M296.2,193.8c-3.5,3.6-5.5,8.4-5.8,13.4c-2.2,0.9-5,2.4-7.6,5.1c-5,5.2-6.1,11-6.2,14.9c-2.2,1-4.7,2.5-6.9,4.8
	c-4.3,4.5-6.6,10-6.5,15.7c0.1,5.2,2.2,10.2,5.7,13.5l41.6,43.1c0,0,0,0,0.1,0.1c0.1,0.1,0.1,0.1,0.2,0.2l0.1,0.1l0,0
	c12.8,12.9,47.2,25.4,73.6-2c20.9-21.6,24.7-39.3,25.7-55.1c1-15.3-5.2-42.7-25.5-73.6c-13.7-20.9-28.5-38.8-44-29.2
	c-3.5,2.2-5.9,6-6.7,10.8c-0.6,3.5-0.4,7.4,0.6,11.5l-30.3-31.4c-0.9-1.1-6.1-6.4-14-6.5c-3.9-0.1-9.7,1.1-15.6,7.2
	c-10.7,11-6,24.1-0.3,30.1l24.2,25.1c-0.5,0.4-1,0.9-1.5,1.4L296.2,193.8z M310.7,224.8c3.5-3.6,3.5-9.4,0-13l-2.2-2.3
	c-0.6-0.6-0.5-1.9,0.3-2.7l0.7-0.7c0.8-0.8,1.9-0.9,2.6-0.3c3.5,3.6,9.1,3.6,12.6,0c3.5-3.6,3.5-9.4,0-13l-37.7-39.1
	c-1.9-2-0.8-4.1,0.3-5.1c1.9-1.9,3.5-1.4,4.8,0l64.2,66.6c2.1,2.2,5.1,3.1,8,2.4c2.9-0.7,5.2-2.8,6.2-5.7c0.8-2.2,4-14.4-11.1-33.7
	c-5.1-6.5-7-10.8-7.9-14.2c-0.4-1.6,1.3-2.6,2.4-1.6c3.3,2.9,8.2,9.4,16.3,21.7c17.8,27.2,23.3,50.5,22.6,62.3
	c-0.6,9.4-1.5,23.7-20.6,43.6c-21.3,22.1-46.7,3.8-52.2-1.9l-38.6-40c-0.6-0.6-0.5-1.8,0.3-2.6l0.7-0.7c0.8-0.8,1.9-0.9,2.6-0.3
	c3.5,3.6,9.1,3.6,12.6,0c3.5-3.6,3.5-9.4,0-13l-2.9-3c-0.6-0.6-0.5-1.9,0.3-2.7l0.7-0.7c0.8-0.8,1.9-0.9,2.6-0.3
	C301.6,228.4,307.3,228.4,310.7,224.8z M100.2,189.6c-4.8,0-8.7,4.1-8.7,9s3.9,9,8.7,9c4.8,0,8.7-4.1,8.7-9S105.1,189.6,100.2,189.6
	z M499.5,102c4.8,0,8.6-4,8.6-9V70.3c0-8.4-6.6-15.3-14.8-15.3H18.7c-8.1,0-14.8,6.9-14.8,15.3v293.4c0,8.4,6.6,15.3,14.8,15.3
	h185.6v27.1h-73.9c-1.7,0-3.3,0.5-4.7,1.5l-78.4,53c-3.2,2.2-4.7,6.3-3.6,10.1c1.1,3.8,4.5,6.4,8.3,6.4h407.9c3.8,0,7.2-2.6,8.3-6.4
	c1.1-3.8-0.4-7.9-3.6-10.1l-78.4-53c-1.4-0.9-3-1.5-4.7-1.5h-73.9V379h185.8c8.1,0,14.8-6.9,14.8-15.3V128.6c0-4.9-3.9-9-8.6-9
	s-8.6,4-8.6,9v232.5H21.2V72.9h469.7v20.1C490.8,98,494.7,102,499.5,102z M378.8,424l51.9,35.1H81l51.9-35.1H378.8z M221.5,379h68.8
	v27.1h-68.8V379z M100.2,148.5c-4.8,0-8.7,4.1-8.7,9c0,5,3.9,9,8.7,9c4.8,0,8.7-4.1,8.7-9C109,152.6,105.1,148.5,100.2,148.5z
	 M223.4,148.6h-90.7c-4.8,0-8.6,4-8.6,9c0,4.9,3.9,8.9,8.6,8.9h90.7c4.8,0,8.6-4,8.6-8.9C232.1,152.6,228.2,148.6,223.4,148.6z
	 M100.2,230.7c-4.8,0-8.7,4-8.7,9s3.9,9.1,8.7,9.1c4.8,0,8.7-4.1,8.7-9.1S105.1,230.7,100.2,230.7z M100.2,271.7c-4.8,0-8.7,4-8.7,9
	s3.9,9,8.7,9c4.8,0,8.7-4,8.7-9S105.1,271.7,100.2,271.7z M223.4,231.5h-90.7c-4.8,0-8.6,4-8.6,9c0,4.9,3.9,8.9,8.6,8.9h90.7
	c4.8,0,8.6-4,8.6-8.9C232.1,235.5,228.2,231.5,223.4,231.5z M223.4,190.1h-90.7c-4.8,0-8.6,4-8.6,9s3.9,8.9,8.6,8.9h90.7
	c4.8,0,8.6-4,8.6-8.9S228.2,190.1,223.4,190.1z M223.4,272.9h-90.7c-4.8,0-8.6,4-8.6,9c0,4.9,3.9,8.9,8.6,8.9h90.7
	c4.8,0,8.6-4,8.6-8.9C232.1,276.9,228.2,272.9,223.4,272.9z"/>
</svg>
