<?xml version="1.0" encoding="utf-8"?>
<!-- Generator: Adobe Illustrator 20.0.0, SVG Export Plug-In . SVG Version: 6.00 Build 0)  -->
<svg version="1.1" id="Capa_1" xmlns="http://www.w3.org/2000/svg" xmlns:xlink="http://www.w3.org/1999/xlink" x="0px" y="0px"
	 viewBox="0 0 512 512" style="enable-background:new 0 0 512 512;" xml:space="preserve">
<style type="text/css">
	.st0{fill:#1D417A;}
</style>
<path class="st0" d="M496.3,349.8h-18.8c0.1-0.4,0.1-0.8,0.1-1.2l0-200.2c0-4.5-3.2-8.5-7.7-9.2c-5.6-0.8-10.3,3.5-10.3,8.9v200.4
	c0,0.4,0.1,0.8,0.1,1.2h-403l0-23.4v-20l0-218.6h402.9l0,23.7c0,4.5,3.2,8.5,7.6,9.2c5.6,0.8,10.3-3.5,10.3-8.9l0-26.4
	c0-8.6-7-15.6-15.6-15.6H54.3c-8.6,0-15.6,7-15.6,15.6l0,221v20l0,23.4H20c-8.6,0-15.6,7-15.6,15.6v21.1c0,8.6,7,15.6,15.6,15.6
	l476.3,0c8.6,0,15.6-7,15.6-15.6v-21C511.8,356.8,504.9,349.8,496.3,349.8z M493.9,384.1H22.4v-16.3h187.9c1.1,3.6,4.5,6.3,8.5,6.3
	h77.6c4,0,7.4-2.7,8.5-6.3h188.9V384.1z M297,157.7c0-14.6-11.8-26.3-26.3-26.3c-14.6,0-26.4,11.8-26.4,26.3
	c0,14.6,11.8,26.3,26.4,26.3C285.2,184.1,297,172.3,297,157.7z M167.6,222.4v68.3c0,11.9,9.7,21.6,21.5,21.6h92.8
	c11.9,0,21.6-9.7,21.6-21.6v-19c11.3,8.9,31.3,24.7,35.1,27.8c4.9,4,10.1,2.8,10.2-5.3c0-1.7,0-68.5,0-70.1c-0.1-8.1-5-9.6-10.2-5.3
	c-0.5,0.4-23.1,18.3-35.1,27.8v-24.3c0-11.9-9.7-21.6-21.6-21.6h-92.8C177.2,200.8,167.6,210.5,167.6,222.4z M229.8,157.7
	c0-15.1-12.8-27.3-28.1-26.3c-13.1,0.9-23.7,11.5-24.5,24.7c-0.9,15.3,11.2,27.9,26.3,27.9C218,184.1,229.8,172.3,229.8,157.7z"/>
</svg>
