<?xml version="1.0" encoding="utf-8"?>
<!-- Generator: Adobe Illustrator 20.0.0, SVG Export Plug-In . SVG Version: 6.00 Build 0)  -->
<svg version="1.1" id="Capa_1" xmlns="http://www.w3.org/2000/svg" xmlns:xlink="http://www.w3.org/1999/xlink" x="0px" y="0px"
	 viewBox="0 0 512 512" style="enable-background:new 0 0 512 512;" xml:space="preserve">
<style type="text/css">
	.st0{fill:#1B417A;}
</style>
<path class="st0" d="M498.1,65.2c6,0,10.9-4.9,10.9-10.9v-9.8c0-18-14.6-32.6-32.6-32.6H45.5c-18,0-32.6,14.6-32.6,32.6v276.6
	c0,18,14.6,32.6,32.6,32.6h70.1l-52,69.8c0,0-8.7,9.3,2.4,17.8c0,0,0,0,0,0c0.2,0.1,0.3,0.2,0.4,0.3c0.1,0.1,0.3,0.2,0.4,0.3
	c0,0,0,0,0-0.1c11.8,7.5,17.6-3.8,17.6-3.8l55.5-84.5h109.8v103.1l0,0l0,0l-76,27.3c-5.6,2-8.6,8.2-6.6,13.9
	c1.6,4.4,5.8,7.2,10.2,7.2c1.2,0,2.5-0.2,3.7-0.6l79.7-28.5l79.4,28.5c1.2,0.4,2.4,0.6,3.7,0.6c4.5,0,8.6-2.8,10.2-7.2
	c2-5.6-0.9-11.9-6.6-13.9l-76-27.3V353.8h204.9c18,0,32.6-14.6,32.6-32.6V96.6c0-6-4.9-10.9-10.9-10.9c-6,0-10.9,4.9-10.9,10.9
	v224.6c0,6-4.9,10.8-10.9,10.9H154.3L265,163.5c0,0,2.6-4.7,0.4-6.2c-2.2-1.5-5.7,2.5-5.7,2.5L131.7,332.1H45.5
	c-6,0-10.8-4.9-10.8-10.9V44.6c0-6,4.9-10.9,10.8-10.9h430.8c6,0,10.8,4.9,10.9,10.9v9.8C487.2,60.4,492.1,65.2,498.1,65.2z"/>
</svg>
