<?xml version="1.0" encoding="utf-8"?>
<!-- Generator: Adobe Illustrator 20.0.0, SVG Export Plug-In . SVG Version: 6.00 Build 0)  -->
<svg version="1.1" id="Capa_1" xmlns="http://www.w3.org/2000/svg" xmlns:xlink="http://www.w3.org/1999/xlink" x="0px" y="0px"
	 viewBox="0 0 512 512" style="enable-background:new 0 0 512 512;" xml:space="preserve">
<style type="text/css">
	.st0{fill:#1D417A;}
</style>
<path class="st0" d="M105.6,384h4c4.7,0,8.5-4.1,8.5-9.2v-18.4c0-4.2-2.6-7.7-6.2-8.8c1.9-15.4,8.8-38.7,33.6-38.7
	c37.1,0,34.9,52.4,34.9,52.4c0,2.8,1.4,5.2,3.6,6.4c-0.1,6.6-0.8,17.1-3.8,25.8c-3,8.5-7.4,14.7-15.4,16l0.7-2.4
	c1.3-4.4-0.9-9.1-4.9-10.6l-14.7-5.2c-4-1.4-8.4,1-9.7,5.4l-1.1,3.7c-1.3,4.4,0.9,9.1,4.9,10.6l7.1,2.5c0.2,0.2,0.5,0.4,0.8,0.5
	c2.3,0.9,4.5,1.6,6.6,2.1l0.1,0.1c0.2,0.1,0.3,0.1,0.5,0.1c0,0,0.1,0,0.1,0c0.5,0.1,0.9,0.2,1.4,0.2c1.8,0.3,3.6,0.5,5.2,0.5h0.2
	c13.3,0,21-10.3,24.5-21c3.5-10.2,4.2-21.5,4.2-28.6c1.9-1.3,3.2-3.6,3.2-6.2c0,0,0.3-57.6-48.4-57.6S97.1,361,97.1,361v13.8
	C97.1,379.8,100.9,384,105.6,384 M498.3,345.7h-16.6c0.1-0.4,0.1-0.8,0.1-1.2V153.2c0-4.7-3.5-8.6-7.9-8.6c-4.4,0-7.9,3.8-7.9,8.6
	v191.3c0,0.4,0.1,0.8,0.1,1.2H264.9l0-33.9V283c0-6.9-5.1-12.4-11.5-12.4l-142.2,0l0-174.8H466v22.9c0,4.7,3.5,8.6,7.9,8.6
	c4.4,0,7.9-3.8,7.9-8.6l0-25.2c0-8.2-6.1-14.9-13.7-14.9l-359,0c-7.6,0-13.7,6.7-13.7,14.9l0,177.1l-62.7,0
	c-6.3,0-11.5,5.6-11.5,12.4v141.4l0,7.1h-7.3c-7.7,0-13.9,6.8-13.9,15.1v4.6c0,8.3,6.2,15.1,13.9,15.1h256.7
	c7.7,0,13.9-6.8,13.9-15.1v-4.6c0-8.3-6.2-15.1-13.9-15.1h-5.7v-35.9l233.4,0c7.6,0,13.7-6.7,13.7-14.9v-20.1
	C512,352.4,505.9,345.7,498.3,345.7 M163.8,457.8h-42c-4.4,0-7.9-3.8-7.9-8.6c0-4.7,3.5-8.6,7.9-8.6h42c4.4,0,7.9,3.8,7.9,8.6
	C171.7,454,168.2,457.8,163.8,457.8 M249,431.5h-212v-7.1l0-11.7V287.7l212,0V431.5z M496.2,378.4l-231.3,0v-9.5h57.4
	c3.5,0,6.5-2.5,7.5-6h166.3V378.4z M304.3,236.4c-7.1,10.1-11.8,22.2-11.9,34.3v41c0,9.8,6.8,18.8,16.5,18.9h117.6
	c9.8-0.1,16.5-9.1,16.5-18.9v-41c-0.1-12.2-4.8-24.2-11.8-34.3c-4.6-6.5-10.2-12.2-16.6-16.3c7.6-10.8,12.2-24.2,12.2-38.8
	c0-9.7-2-19-5.6-27.2c-1.9-4.3-6.6-6.1-10.5-4.1c-4,2-5.7,7.1-3.8,11.4c2.6,6,4.1,12.8,4.1,19.9c0,14.2-5.9,26.9-15.1,35.5
	c-0.7,0.6-1.4,1.3-2.1,1.8c-0.3,0.3-0.6,0.5-1,0.8c-0.7,0.5-1.4,1-2.1,1.5c-0.4,0.3-0.9,0.6-1.3,0.9c-0.6,0.4-1.3,0.8-2,1.2
	c-0.6,0.3-1.2,0.6-1.7,0.9c-0.6,0.3-1.2,0.6-1.8,0.8c-0.7,0.3-1.4,0.6-2.2,0.9c-0.5,0.2-1.1,0.4-1.6,0.6c-0.8,0.3-1.7,0.5-2.6,0.7
	c-0.5,0.1-0.9,0.2-1.4,0.4c-1,0.2-2,0.4-3,0.5c-0.4,0-0.7,0.1-1.1,0.2c-1.4,0.1-2.8,0.2-4.2,0.2c0,0,0,0-0.1,0
	c-1.4,0-2.9-0.1-4.3-0.2c-0.3,0-0.6-0.1-0.9-0.1c-1.1-0.1-2.2-0.3-3.2-0.5c-0.4-0.1-0.8-0.2-1.2-0.3c-0.9-0.2-1.9-0.5-2.8-0.8
	c-0.5-0.2-0.9-0.3-1.4-0.5c-0.8-0.3-1.6-0.6-2.4-0.9c-0.5-0.2-1.1-0.5-1.6-0.8c-0.6-0.3-1.3-0.6-1.9-1c-0.6-0.3-1.2-0.7-1.8-1.1
	c-0.5-0.3-1-0.6-1.5-1c-0.7-0.5-1.3-0.9-2-1.4c-0.4-0.3-0.7-0.6-1.1-0.9c-0.7-0.6-1.4-1.1-2-1.7c-9.2-8.6-15.1-21.3-15.2-35.5
	c0-25.9,19.4-46.8,43.2-46.9c6.6,0,12.8,1.6,18.4,4.4c4,2,8.7,0.2,10.5-4.1c1.9-4.3,0.2-9.4-3.8-11.4c-7.6-3.9-16.2-6.1-25.1-6.1
	c-32.6,0-59.1,28.7-59.1,64c0,14.6,4.6,28,12.2,38.8C314.4,224.3,308.8,230,304.3,236.4 M332.7,232.8c0.2,0.2,0.4,0.3,0.6,0.4
	c0.9,0.7,1.8,1.4,2.7,2c0.5,0.3,1,0.7,1.5,1c0.9,0.6,1.9,1.2,2.8,1.8c0.5,0.3,1.1,0.6,1.6,0.9c1.5,0.8,3.1,1.6,4.7,2.2
	c0.9,0.4,1.8,0.8,2.7,1.1c0.7,0.3,1.5,0.5,2.2,0.7c1,0.3,2.1,0.6,3.1,0.9c0.7,0.2,1.4,0.3,2.1,0.5c1.2,0.2,2.4,0.4,3.7,0.6
	c0.6,0.1,1.1,0.2,1.7,0.2c1.8,0.2,3.7,0.3,5.5,0.3h0c1.9,0,3.7-0.1,5.5-0.3c0.6-0.1,1.2-0.2,1.8-0.2c1.2-0.2,2.4-0.4,3.6-0.6
	c0.7-0.1,1.4-0.3,2.1-0.5c1-0.2,2-0.5,3-0.8c0.8-0.2,1.6-0.5,2.3-0.7c0.9-0.3,1.7-0.6,2.5-1c1.9-0.8,3.8-1.7,5.6-2.6
	c0.3-0.2,0.6-0.3,1-0.5c1-0.6,2-1.2,3-1.9c0.4-0.3,0.9-0.6,1.3-0.9c1-0.7,1.9-1.4,2.9-2.1c0.2-0.1,0.3-0.2,0.5-0.4
	c5.6,2.6,11.4,7.7,15.8,14c5.4,7.6,8.7,16.9,8.6,23.9c0,21.5,0,41,0,41c0,0.7-0.3,1.3-0.5,1.6c-0.2,0.2-0.2,0.2-0.2,0.2h-9.2v-43.3
	c0-4.7-3.5-8.6-7.9-8.6c-4.4,0-7.9,3.8-7.9,8.6v43.3H334v-43.3c0-4.7-3.5-8.6-7.9-8.6c-4.4,0-7.9,3.8-7.9,8.6v43.3H309
	c0,0,0,0-0.2-0.2c-0.2-0.3-0.5-0.8-0.5-1.6v-41c-0.1-7,3.2-16.3,8.6-23.9C321.3,240.5,327.1,235.4,332.7,232.8 M145.8,182.2
	c-4.4,0-8,3.9-8,8.7c0,4.8,3.6,8.7,8,8.7c4.4,0,8-3.9,8-8.7C153.8,186.1,150.2,182.2,145.8,182.2 M145.8,143.3c-4.4,0-8,3.9-8,8.7
	s3.6,8.7,8,8.7c4.4,0,8-3.9,8-8.7S150.2,143.3,145.8,143.3 M145.8,221.2c-4.4,0-8,3.9-8,8.7c0,4.8,3.6,8.7,8,8.7c4.4,0,8-3.9,8-8.7
	C153.8,225.1,150.2,221.2,145.8,221.2 M258.7,183.8h-83.1c-4.4,0-7.9,3.8-7.9,8.6s3.5,8.6,7.9,8.6h83.1c4.4,0,7.9-3.8,7.9-8.6
	S263.1,183.8,258.7,183.8 M258.7,221.3h-83.1c-4.4,0-7.9,3.8-7.9,8.6c0,4.7,3.5,8.6,7.9,8.6h83.1c4.4,0,7.9-3.8,7.9-8.6
	C266.7,225.1,263.1,221.3,258.7,221.3 M258.7,143.4h-83.1c-4.4,0-7.9,3.8-7.9,8.6c0,4.7,3.5,8.6,7.9,8.6h83.1c4.4,0,7.9-3.8,7.9-8.6
	C266.7,147.2,263.1,143.4,258.7,143.4"/>
</svg>
