<?xml version="1.0" encoding="utf-8"?>
<!-- Generator: Adobe Illustrator 20.0.0, SVG Export Plug-In . SVG Version: 6.00 Build 0)  -->
<svg version="1.1" id="Capa_1" xmlns="http://www.w3.org/2000/svg" xmlns:xlink="http://www.w3.org/1999/xlink" x="0px" y="0px"
	 viewBox="0 0 512 512" style="enable-background:new 0 0 512 512;" xml:space="preserve">
<style type="text/css">
	.st0{fill:#1B417A;}
</style>
<path class="st0" d="M175,348.7c14.4,15,45,31.2,83.2,31.3c25.5,0,46.9-7.9,62.2-17.9c7.6-5,13.7-10.4,18.2-15.9
	c4.3-5.6,7.4-10.9,7.6-17.6v-41.8l47.2-20.3c3-1.3,5-4.2,5-7.5c0.1-3.3-1.8-6.3-4.8-7.7l-134.4-63.7c-2.3-1.1-4.9-1.1-7.1,0
	l-11.2,5.3c-1.3-2.5-2.7-5-4.1-7.2c-2.5-4-5.2-7.6-8.3-10.5c-3.1-2.8-7-5.5-12.5-5.6c-4.2-0.1-8.2,2-10.9,4.8
	c-3.8,4.1-6.5,9.4-8.7,16.6c-4.9-1.8-10-3-15.2-3.1c-9.7-0.2-19.6,4.8-26.1,14.4c-6.1,8.7-10.2,20.8-12.7,37.3l-24.8,11.7
	c-3,1.4-4.8,4.4-4.8,7.7c0,3.3,2,6.2,5,7.5l48.5,20.8v44.1C166.6,338.6,170.3,343.4,175,348.7z M329.5,328.7
	c0.1,0.1-0.7,3.4-3.9,7.1c-9.3,11.7-34.4,27.7-67.4,27.6c-22.1,0-41.7-6.5-55.4-14.4c-6.9-3.9-12.3-8.2-15.6-11.7
	c-1.7-1.8-2.9-3.4-3.5-4.5c-0.3-0.6-0.5-1-0.5-1.2l0,0v-36.9l69.3,29.8c1.1,0.5,2.2,0.7,3.3,0.7c1.1,0,2.2-0.2,3.3-0.7l70.6-30.3
	V328.7z M214.1,191.1c0.9-2.1,1.7-3.5,2.3-4.3c2,1.5,5.9,6.6,9.4,13.3l-7.8,3.7c-2.1-1.7-4.3-3.3-6.5-4.8
	C212.3,195.8,213.2,193.2,214.1,191.1z M168.7,211.9c4.3-5.8,7.7-7.1,12.5-7.3c3.2-0.2,7.2,0.9,11.5,3c-0.5,2.8-1,5.8-1.4,9
	l-30.2,14.3C163.2,222,165.9,215.8,168.7,211.9z M141.5,258.5l12.3-5.8v0l48.8-23.1c0,0,0,0,0,0l12.9-6.1c3.1,2.7,6,5.6,8.8,8.5
	c7.1,7.2,13.3,14.5,17.6,19.9c4,5,6.5,8.4,6.8,8.9v0c0,0,0.1,0.1,0.1,0.1c0.5,0.7,1,1.2,1.6,1.7c0.2,0.1,0.3,0.2,0.5,0.3
	c0.5,0.3,1.1,0.6,1.6,0.8c0.2,0.1,0.4,0.2,0.6,0.2c0.7,0.2,1.5,0.4,2.3,0.4c0,0,0,0,0.1,0c0.7,0,1.5-0.1,2.3-0.3
	c0.1,0,0.1,0,0.1-0.1c0.1,0,0.2-0.1,0.4-0.1c0.7-0.2,1.3-0.5,1.8-0.9c0.1-0.1,0.2-0.1,0.3-0.1c0.1,0,0.1-0.1,0.2-0.1
	c0.2-0.2,0.4-0.4,0.6-0.5c0.2-0.2,0.4-0.4,0.6-0.6c0.2-0.2,0.3-0.4,0.4-0.5c0.2-0.3,0.4-0.5,0.5-0.8c0.1-0.2,0.2-0.4,0.3-0.6
	c0.1-0.3,0.3-0.6,0.4-0.9c0.1-0.2,0.1-0.5,0.2-0.7c0.1-0.3,0.1-0.6,0.2-0.9c0-0.3,0-0.5,0.1-0.7c0-0.3,0-0.6,0-0.9
	c0-0.2,0-0.5-0.1-0.7c0-0.3-0.1-0.6-0.2-0.9c0-0.1,0-0.1,0-0.2c0-0.1-5.6-19.8-13.5-39.8c-0.8-1.9-1.6-3.9-2.4-5.8l7.8-3.7
	l114.2,54.1l-114.2,49L141.5,258.5z M487.1,399c4.1-11.9,9.3-31.2,9.3-54.5c0-4.7-0.2-9.5-0.7-14.5
	c-9.9-104.5-67.9-163.8-102.3-191.8c-0.1-0.1-0.3-0.2-0.4-0.2c-0.2-0.2-0.4-0.3-0.6-0.4c-0.2-0.2-0.5-0.3-0.7-0.4
	c-0.2-0.1-0.5-0.2-0.7-0.3c-0.2-0.1-0.5-0.2-0.7-0.2c-0.3-0.1-0.5-0.1-0.8-0.2c-0.2,0-0.5-0.1-0.7-0.1c-0.3,0-0.6,0-0.8,0
	c-0.2,0-0.5,0-0.7,0.1c-0.3,0-0.6,0.1-0.9,0.1c-0.2,0.1-0.5,0.1-0.7,0.2c-0.3,0.1-0.5,0.2-0.8,0.3c-0.2,0.1-0.5,0.2-0.7,0.4
	c-0.2,0.1-0.5,0.3-0.7,0.4c-0.2,0.2-0.5,0.4-0.7,0.5c-0.1,0.1-0.3,0.2-0.4,0.4c0,0-0.1,0.1-0.1,0.2c0,0-0.1,0.1-0.2,0.1
	c-0.1,0.2-0.3,0.3-0.4,0.5c-0.2,0.2-0.4,0.4-0.5,0.7c-0.1,0.2-0.3,0.5-0.4,0.7c-0.1,0.2-0.3,0.5-0.4,0.7c-0.1,0.2-0.2,0.5-0.2,0.8
	c-0.1,0.3-0.2,0.5-0.2,0.8c0,0.3-0.1,0.5-0.1,0.8c0,0.3-0.1,0.5-0.1,0.8c0,0.3,0,0.6,0.1,0.8c0,0.2,0,0.5,0.1,0.7
	c0.1,0.3,0.2,0.6,0.3,0.9c0.1,0.2,0.1,0.4,0.2,0.6c0.1,0.3,0.3,0.6,0.5,0.9c0.1,0.2,0.2,0.3,0.3,0.5c0.3,0.5,0.6,0.9,1,1.3
	c0,0,0,0,0,0c0.7,0.7,1.4,1.4,2.1,2.2c3.8,4,7.8,8.5,11.8,13.6c0.1,0.2,0.3,0.4,0.4,0.5c1.1,1.3,2.1,2.7,3.2,4.1
	c0.5,0.7,1,1.4,1.5,2.1c0.7,0.9,1.4,1.9,2.1,2.8c0.8,1.1,1.6,2.4,2.4,3.6c0.4,0.6,0.8,1.1,1.2,1.7c1,1.6,2,3.2,3,4.8
	c0.2,0.3,0.3,0.5,0.5,0.8c9.3,15.4,17.9,34.1,23.7,56.6c3,13.3,4.5,27.2,4.5,41c0,0.3,0,0.5,0,0.5c-0.3,14.7-2.3,29.1-5.3,42
	c0,0.1,0,0.1,0,0.2c-1.8,7.7-3.8,15-6,21.4c-2.2,5.9-4.7,11.9-7.6,17.8c-0.6-0.3-1.3-0.4-1.9-0.6c-0.4-0.1-0.9-0.3-1.3-0.4
	c-1-0.2-2.1-0.4-3.2-0.4c-0.2,0-0.3-0.1-0.5-0.1c-1.5,0-3.2,0.3-4.8,0.9c-0.3,0.1-0.6,0.2-0.8,0.3c-1.7,0.8-3.3,1.9-4.4,3.3
	c-1,1.2-1.6,2.4-2.1,3.6c-0.8,1.9-1.1,3.9-1.1,5.7c0,1.6,0.2,3.1,0.5,4.5c0,0,0,0.1,0,0.2c0.1,0.2,0.2,0.7,0.2,1.1
	c0,0.1,0,0.2,0.1,0.4c0.1,0.5,0.2,1,0.3,1.6c0,0.2,0.1,0.4,0.1,0.7c0.4,2.1,0.9,4.9,1.4,8c-2.3,3.1-4.6,6.2-7.1,9.2
	c-37,44.3-90.1,67.1-143.7,67.1c-26.1,0-52.2-5.4-76.7-16.4c-10.4-5-20.2-11.1-29.3-17.8c-0.7-0.5-1.3-1-2-1.5
	c-1.2-0.9-2.4-1.9-3.6-2.8c-0.8-0.7-1.7-1.4-2.5-2c-1.1-0.9-2.3-1.9-3.4-2.8c-0.8-0.7-1.5-1.3-2.3-2c-1.1-1-2.3-2-3.4-3
	c-0.6-0.5-1.1-1-1.6-1.5c-7.7-7.2-14.4-14.3-19.7-20.8c0,0-0.1-0.1-0.1-0.1c-1.1-1.3-2.2-2.7-3.2-3.9c0,0,0,0,0,0
	c-2-2.6-3.8-5-5.3-7.3c3.8-2.8,7-6.8,7.1-12.4c0-0.7-0.1-1.4-0.2-2.1c-0.3-2-1.1-3.8-2.2-5.3c-0.5-0.7-1-1.3-1.6-1.8
	c-0.9-0.9-1.9-1.6-2.9-2.2c-1.5-0.9-3-1.6-4.6-2.1c-0.3-0.1-0.7-0.2-1.1-0.4c-0.1,0-0.3-0.1-0.4-0.1c-0.4-0.1-0.8-0.3-1.3-0.5
	c-0.2-0.1-0.5-0.2-0.7-0.3c-0.6-0.2-1.3-0.5-2-0.7c-0.3-0.1-0.6-0.2-1-0.4c-2.4-0.9-5.2-2-8.2-3.1c-10-23.4-15.1-48.5-15.1-73.7
	c0-20.7,3.4-41.5,10.4-61.4c0.1-0.2,0.1-0.4,0.2-0.6c0.3-0.9,0.7-1.7,1-2.6c0.2-0.5,0.4-1.1,0.6-1.6c0.3-0.8,0.7-1.6,1-2.4
	c0.6-1.4,1.2-2.8,1.8-4.2c0.3-0.6,0.5-1.1,0.7-1.7c0.4-0.9,0.8-1.8,1.2-2.6c0.3-0.6,0.6-1.2,0.9-1.8c0.4-0.9,0.8-1.7,1.3-2.6
	c0.3-0.6,0.6-1.3,1-1.9c0.4-0.9,0.9-1.7,1.4-2.6c0.4-0.7,0.8-1.4,1.1-2.1c0.5-0.8,0.9-1.7,1.4-2.5c0.4-0.8,0.9-1.6,1.4-2.3
	c0.5-0.8,0.9-1.6,1.4-2.3c0.6-0.9,1.1-1.8,1.7-2.8c0.4-0.7,0.8-1.3,1.3-2c0.9-1.4,1.9-2.9,2.8-4.3c0.1-0.2,0.2-0.4,0.4-0.5
	c1.1-1.7,2.3-3.3,3.6-5c0.2-0.3,0.4-0.6,0.6-0.8c1-1.4,2.1-2.8,3.2-4.2c0.3-0.4,0.6-0.8,0.9-1.2c1-1.3,2.1-2.6,3.1-3.9
	c0.4-0.4,0.7-0.9,1.1-1.3c1.1-1.3,2.2-2.5,3.3-3.8c0.4-0.4,0.8-0.9,1.2-1.3c1.2-1.3,2.3-2.6,3.5-3.8c0.4-0.4,0.8-0.8,1.2-1.2
	c1.3-1.3,2.6-2.7,4-4c0.3-0.3,0.7-0.7,1-1c1.5-1.5,3.1-3,4.8-4.5c0.2-0.2,0.3-0.3,0.5-0.5c6.5-5.7,13.5-11,20.8-15.7
	c1.5-0.9,3-1.8,4.5-2.7c0.9-0.5,1.7-1,2.6-1.5c1.1-0.6,2.2-1.2,3.2-1.7c1.6-0.8,3.2-1.7,4.8-2.4c0.7-0.3,1.3-0.7,2-1
	c2.3-1.1,4.6-2.2,7-3.2c0.1,0,0.1,0,0.2-0.1c5.3-2.3,10.6-4.3,15.8-6c0,0,0.1,0,0.1,0c2.4-0.8,4.8-1.6,7.2-2.3
	c0.4-0.1,0.8-0.3,1.3-0.4c2-0.6,3.9-1.1,5.9-1.6c0.6-0.1,1.1-0.3,1.7-0.4c1.8-0.5,3.6-0.9,5.4-1.3c0.6-0.1,1.2-0.3,1.8-0.4
	c2.1-0.5,4.1-0.9,6.2-1.3c1.2-0.2,2.4-0.4,3.6-0.6c0.8-0.1,1.6-0.3,2.4-0.4c1.3-0.2,2.5-0.4,3.7-0.6c0.6-0.1,1.3-0.2,1.9-0.3
	c1.2-0.2,2.4-0.3,3.6-0.4c0.6-0.1,1.2-0.1,1.7-0.2c1.1-0.1,2.2-0.2,3.3-0.3c0.7-0.1,1.4-0.1,2.1-0.1c0.8,0,1.6-0.1,2.3-0.1
	c0,0.4,0.1,0.8,0.2,1.3c0,0.4,0.1,0.8,0.2,1.1c0,0,0,0,0,0c0.3,1.6,0.8,3.2,1.6,4.7c0.4,0.7,0.8,1.4,1.3,2.1
	c2.2,3.2,6.5,5.3,10.2,5.2c1.7,0,3.2-0.4,4.7-0.9c2.4-0.8,4.4-2.1,6.2-3.7c0.2-0.2,0.5-0.4,0.9-0.7c0.1-0.1,0.3-0.2,0.4-0.3
	c0.2-0.2,0.4-0.4,0.7-0.5c2-1.5,5-3.9,8.5-6.6c26.1,3.8,56.5,16.2,79.6,31.3c3.9,2.5,9,1.4,11.5-2.4c2.5-3.9,1.4-9-2.4-11.5
	c-20.6-13.4-47.9-25.7-70.8-30.9c6.3-4.8,11.6-8.8,13.7-10.7c3.3-2.7,6.4-7.6,6.2-12.9c0-0.1,0-0.3,0-0.6c0-5.5-3.5-10.5-7.2-13.1
	c-4.5-3.4-42-34.1-44.3-35.9c-2.9-2.2-6.2-4-10.5-4c-3.8-0.1-8.2,2.1-10.3,5.4c-2.1,3-2.7,6.3-2.9,9.6c-15,2.3-40.1,8.3-64.9,24.6
	C50,131.5,49,257.1,49,260.9c0,0.2,0,0.4,0,0.6c-0.9,7.6-1.3,15.2-1.3,22.8c0,22.3,3.7,44.4,10.8,65.6c-6.4-2.5-11.7-4.5-14-5.2
	c-1.8-0.6-3.8-0.9-5.9-0.9c-3,0-6.4,1-9,2.7c-4.7,2.9-7.1,8.5-7.4,12.9c-0.6,5.7-7,53.6-7.3,56.6c-0.1,0.8-0.2,1.6-0.2,2.5
	c0,3.1,0.7,6.4,2.9,9.5c2.2,3.1,6.4,5.1,10.1,5c3.3,0,6.2-1.1,8.8-2.6c9.8,11.6,28,29.8,55,42.4l3.5-7.5l-3.5,7.5
	c44,20.6,85.3,27.7,120.9,27.7c76,0,126.5-32,128.1-32.9c24.3-11.8,46.6-28.6,65.3-50.3c1.4,8.4,2.6,15.6,3.2,18.4
	c0.9,4.4,4,9.6,9.1,11.9c2.1,1,4.5,1.6,6.9,1.6h0.1c2.9,0,5.6-0.8,7.8-1.8c5.2-2.4,49.8-21.2,52.5-22.4c4.6-2.1,9.7-6,9.9-13.3
	C495.5,405.6,491.5,401.5,487.1,399z M185.9,62.1c26.5-17.4,53.9-21.8,65.2-22.9c4.3-0.4,7.6-4.2,7.5-8.6c0-0.7-0.1-1.4-0.1-2.1
	c9.7,7.9,36.8,30,41.1,33.3c0.2,0.2,0.4,0.3,0.5,0.4c-0.1,0.1-0.2,0.3-0.5,0.4c-1.6,1.4-11.2,8.7-20.4,15.7
	c-4.8,3.6-9.4,7.2-13.3,10.1c-0.3,0.2-0.6,0.4-0.8,0.6c-0.4,0.3-0.8,0.6-1.2,0.9c-0.5,0.4-1,0.8-1.4,1.1c-0.1,0.1-0.2,0.1-0.3,0.2
	c-0.5,0.4-1,0.8-1.5,1.2c0-1-0.1-2.2-0.1-3.4c-0.1-2.4-1.2-4.5-2.9-6c-1.4-1.2-3.1-2-5-2.1c-1.3-0.1-2.7-0.1-4.2-0.1
	c-0.5,0-1,0-1.5,0c-1.2,0-2.4,0.1-3.7,0.1c-0.5,0-1.1,0.1-1.6,0.1c-1.4,0.1-2.9,0.2-4.4,0.3c-0.6,0-1.2,0.1-1.8,0.2
	c-1.5,0.1-3.1,0.3-4.7,0.5c-0.7,0.1-1.3,0.2-2,0.3c-1.6,0.2-3.3,0.5-5,0.7c-0.7,0.1-1.4,0.2-2.2,0.3c-1.8,0.3-3.6,0.6-5.5,1
	c-1.9,0.4-3.8,0.8-5.8,1.2c-1,0.2-2,0.4-3,0.7c-1.7,0.4-3.5,0.9-5.3,1.3c-0.7,0.2-1.4,0.4-2.1,0.5c-1.9,0.5-3.9,1.1-5.9,1.6
	c-0.5,0.1-1,0.3-1.5,0.4c-2.2,0.7-4.3,1.3-6.6,2.1c-0.1,0-0.2,0.1-0.3,0.1c-9.3,3.1-18.8,6.9-28.2,11.6c-0.9,0.4-1.8,0.9-2.7,1.4
	c-1.5,0.8-3.1,1.6-4.6,2.5c-1.5,0.8-3.1,1.7-4.6,2.6c-1,0.6-2,1.2-3,1.8c-0.5,0.3-1.1,0.6-1.6,0.9c-0.5,0.4-1.1,0.8-1.6,1.1
	c-7.3,4.7-14.5,10-21.1,15.9c-0.6,0.6-1.2,1.2-1.8,1.7c-1.6,1.5-3.3,3-4.8,4.6c-1,1-2,2-3,3c-1.2,1.2-2.3,2.4-3.4,3.6
	c-0.5,0.5-1,1-1.5,1.6C121.5,116.4,147.6,87.2,185.9,62.1z M98.8,457.8c-28.7-13.4-46.8-34.5-53.7-43.5c-2.7-3.5-7.6-4.3-11.2-1.9
	c-0.6,0.4-1.2,0.8-1.7,1.2c1.6-12.5,6.3-47,6.8-52.5c0-0.3,0.1-0.5,0.1-0.6c0.1,0,0.3,0.1,0.6,0.1c2.1,0.6,13.4,5,24.1,9.2
	c8.3,3.2,16.2,6.3,21.4,8.2c0.1,0,0.2,0.1,0.4,0.1c-0.9,0.6-1.8,1.2-2.8,1.9c-3.6,2.4-4.7,7.1-2.7,10.9v0c0.8,1.4,1.7,2.9,2.7,4.4
	c0.1,0.2,0.3,0.5,0.5,0.7c0.9,1.3,1.8,2.7,2.8,4.2c0.3,0.4,0.6,0.8,0.8,1.2c0.9,1.3,1.9,2.6,2.9,3.9c0.4,0.6,0.9,1.1,1.3,1.7
	c0.9,1.1,1.8,2.3,2.8,3.5c0.6,0.8,1.3,1.6,2,2.4c0.7,0.8,1.4,1.7,2.2,2.5c15.7,18.2,39.1,39.3,67.8,53.5c0.8,0.4,1.5,0.8,2.2,1.1
	c0.3,0.1,0.5,0.2,0.8,0.3c7.5,3.6,15.3,6.7,23.5,9.1c5.8,1.7,11.5,3.1,17,4.2C176.5,483.5,139,476.7,98.8,457.8z M473,410.7
	c0.7,0.3,1.3,0.6,1.9,0.9c-11.5,4.9-43.7,18.5-48.6,20.8c-0.3,0.1-0.5,0.2-0.6,0.2c-0.1-0.1-0.1-0.3-0.2-0.6
	c-0.5-2.1-2.5-14-4.3-25.4c-0.6-3.7-1.2-7.2-1.7-10.6v0c-0.1-0.5-0.2-1-0.3-1.5c-0.3-1.7-0.5-3.2-0.8-4.7c-0.1-0.4-0.1-0.7-0.2-1.1
	c0-0.3-0.1-0.5-0.1-0.8c-0.3-1.5-0.5-3-0.7-4.2c0.9,0.4,2,0.9,3,1.5c3.9,1.9,8.6,0.5,10.8-3.2c8.4-14.3,19.3-43.4,23-77.5
	c0-0.2,0-0.4,0.1-0.6c0.3-2.7,0.5-5.4,0.7-8.2c0-0.6,0.1-1.3,0.1-1.9c0.2-2.5,0.3-5.1,0.3-7.7c0-0.3,0-0.5,0-0.8c0-0.3,0-0.4,0-0.5
	c0-1.1,0.1-2.1,0.1-3.1c0-13.6-1.4-27.6-4.9-41.4c-1.3-5.1-2.7-10-4.3-14.8c15.9,27.8,28.7,62.8,32.8,106.3
	c0.4,4.4,0.6,8.7,0.6,12.9c0,25.7-7.2,46.4-10.8,55.5C467.3,404.1,469.1,408.8,473,410.7z"/>
</svg>
